<svg width="27" height="25" viewBox="0 0 27 25" fill="none" xmlns="http://www.w3.org/2000/svg">
<path d="M1 7.16147L13.165 1.07897C13.269 1.02704 13.3837 1 13.5 1C13.6163 1 13.731 1.02704 13.835 1.07897L26 7.16147M23.5 10.9115V20.9115C23.5 21.5745 23.2366 22.2104 22.7678 22.6792C22.2989 23.1481 21.663 23.4115 21 23.4115H6C5.33696 23.4115 4.70107 23.1481 4.23223 22.6792C3.76339 22.2104 3.5 21.5745 3.5 20.9115V10.9115" stroke="white" stroke-width="1.5" stroke-linecap="round" stroke-linejoin="round"/>
<path d="M9.48611 7C9.61504 7 9.73868 7.05174 9.82984 7.14383C9.92101 7.23593 9.97222 7.36083 9.97222 7.49107V10.4375C9.97206 10.7423 10.0655 11.0396 10.2396 11.2885C10.4137 11.5374 10.66 11.7256 10.9444 11.8272V7.49107C10.9444 7.36083 10.9957 7.23593 11.0868 7.14383C11.178 7.05174 11.3016 7 11.4306 7C11.5595 7 11.6831 7.05174 11.7743 7.14383C11.8655 7.23593 11.9167 7.36083 11.9167 7.49107V11.8272C12.2011 11.7256 12.4474 11.5374 12.6215 11.2885C12.7956 11.0396 12.889 10.7423 12.8889 10.4375V7.49107C12.8889 7.36083 12.9401 7.23593 13.0313 7.14383C13.1224 7.05174 13.2461 7 13.375 7C13.5039 7 13.6276 7.05174 13.7187 7.14383C13.8099 7.23593 13.8611 7.36083 13.8611 7.49107V10.4375C13.8612 11.0035 13.6677 11.5522 13.3134 11.9907C12.9591 12.4292 12.4657 12.7305 11.9167 12.8438V20.2589C11.9167 20.3892 11.8655 20.5141 11.7743 20.6062C11.6831 20.6983 11.5595 20.75 11.4306 20.75C11.3016 20.75 11.178 20.6983 11.0868 20.6062C10.9957 20.5141 10.9444 20.3892 10.9444 20.2589V12.8438C10.3954 12.7305 9.90203 12.4292 9.5477 11.9907C9.19337 11.5522 8.99989 11.0035 9 10.4375V7.49107C9 7.36083 9.05122 7.23593 9.14238 7.14383C9.23354 7.05174 9.35719 7 9.48611 7ZM16.2712 8.45259C16.4258 8.29545 16.5999 8.17464 16.7778 8.09509V12.8929H15.8056V9.45536C15.8056 9.12438 15.9747 8.75116 16.2712 8.45259ZM16.7778 13.875V20.2589C16.7778 20.3892 16.829 20.5141 16.9202 20.6062C17.0113 20.6983 17.135 20.75 17.2639 20.75C17.3928 20.75 17.5165 20.6983 17.6076 20.6062C17.6988 20.5141 17.75 20.3892 17.75 20.2589V7.49107C17.75 7.36083 17.6988 7.23593 17.6076 7.14383C17.5165 7.05174 17.3928 7 17.2639 7C16.6193 7 16.0165 7.32018 15.5829 7.75723C15.1503 8.19527 14.8333 8.8042 14.8333 9.45536V13.3839C14.8333 13.5142 14.8845 13.6391 14.9757 13.7312C15.0669 13.8233 15.1905 13.875 15.3194 13.875H16.7778Z" fill="white"/>
</svg>
